# xmcd
#
# Track frame offsets: 
#        150
#        9580
#        19122
#        27740
#        37372
#        50255
#        59660
#        68942
#        78355
#        89065
#        99322
#        109490
#        119637
#        128202
#        138540
#        148255
#        158360
#        169442
#        181660
#        193417
#        202572
#        211567
#        225390
#        236760
#        246682
#
# Disc length: 3401 seconds
#
# Revision: 5
# Processed by: cddbd v1.5.2PL0 Copyright (c) Steve Scherf et al.
# Submitted via: ExactAudioCopy v1.0b1
#
DISCID=740d4719
DTITLE=Johnny Cash - The Man In Black 1954-1958 [CD4 Of 5)
DYEAR=1990
DGENRE=Country
TTITLE0=Oh, What A Dream (version 1) (stereo)
TTITLE1=I'll Remember You (version 1) (stereo)
TTITLE2=Drink To Me (stereo)
TTITLE3=What Do I Care? (stereo)
TTITLE4=Suppertime (stereo)
TTITLE5=It Was Jesus (Who Was It) (stereo)
TTITLE6=Oh, What A Dream (version 2) (stereo)
TTITLE7=I'll Remember You (version 2) (stereo)
TTITLE8=Mama's Baby (stereo)
TTITLE9=The Troubador (stereo)
TTITLE10=Run Softly, Blue River (stereo)
TTITLE11=All Over Again (stereo)
TTITLE12=That's All Over (stereo)
TTITLE13=Frankie's Man Johnnie (stereo)
TTITLE14=Fool's Hall Of Fame (Columbia version) (stereo)
TTITLE15=Walkin' The Blues (stereo)
TTITLE16=Lead Me Father (stereo)
TTITLE17=That's Enough (stereo)
TTITLE18=I Still Miss Someome (stereo)
TTITLE19=One More Ride (stereo)
TTITLE20=Pickin' Time (stereo)
TTITLE21=Don't Take Your Guns To Town (stereo)
TTITLE22=I'd Rather Die Young (stereo)
TTITLE23=The Shepherd Of My Heart (stereo)
TTITLE24=Cold Shoulder (stereo)
EXTD=
EXTT0=
EXTT1=
EXTT2=
EXTT3=
EXTT4=
EXTT5=
EXTT6=
EXTT7=
EXTT8=
EXTT9=
EXTT10=
EXTT11=
EXTT12=
EXTT13=
EXTT14=
EXTT15=
EXTT16=
EXTT17=
EXTT18=
EXTT19=
EXTT20=
EXTT21=
EXTT22=
EXTT23=
EXTT24=
PLAYORDER=
